<?xml version="1.0" standalone="no"?>
<!DOCTYPE svg PUBLIC "-//W3C//DTD SVG 20010904//EN"
 "http://www.w3.org/TR/2001/REC-SVG-20010904/DTD/svg10.dtd">
<svg version="1.0" xmlns="http://www.w3.org/2000/svg"
 width="337.000000pt" height="337.000000pt" viewBox="0 0 337.000000 337.000000"
 preserveAspectRatio="xMidYMid meet">

<g transform="translate(0.000000,337.000000) scale(0.100000,-0.100000)"
fill="#000000" stroke="none">
<path d="M1618 3223 c-8 -10 -23 -33 -34 -50 -10 -18 -22 -33 -26 -33 -4 0 -8
-5 -8 -11 0 -13 -194 -265 -230 -299 -3 -3 -16 -18 -29 -35 -12 -16 -37 -46
-55 -65 -17 -19 -63 -73 -101 -120 -38 -47 -72 -87 -75 -90 -45 -44 -196 -253
-262 -365 -48 -80 -132 -263 -154 -337 -33 -105 -63 -299 -64 -401 0 -170 46
-388 112 -522 70 -143 196 -293 303 -364 22 -14 42 -28 45 -31 12 -12 111 -63
195 -101 186 -82 507 -102 731 -43 250 65 479 222 609 419 134 203 184 408
172 710 -9 234 -52 393 -162 602 -88 167 -222 353 -406 564 -27 31 -59 69 -71
85 -12 16 -25 31 -28 34 -23 22 -213 258 -283 353 -85 114 -88 117 -125 117
-25 0 -44 -6 -54 -17z m94 -352 c12 -20 28 -42 35 -49 7 -7 13 -17 13 -21 0
-4 8 -16 18 -27 9 -10 48 -58 85 -106 37 -47 73 -92 80 -100 7 -7 46 -53 87
-103 41 -49 83 -99 94 -110 19 -21 131 -164 156 -201 71 -102 106 -160 136
-224 20 -41 42 -88 50 -103 18 -38 7 -41 -109 -34 -127 7 -333 -9 -431 -34
-105 -27 -173 -58 -267 -124 -104 -74 -152 -90 -269 -90 -88 0 -100 3 -165 35
-65 32 -127 84 -183 153 -36 45 -102 175 -102 203 0 20 118 227 139 244 3 3
17 21 30 40 22 31 147 190 193 245 96 114 144 173 203 250 38 50 72 92 75 95
4 3 23 31 44 63 42 64 48 64 88 -2z"/>
</g>
</svg>
